<?xml version="1.0" standalone="no"?>
<!DOCTYPE svg PUBLIC "-//W3C//DTD SVG 20010904//EN"
 "http://www.w3.org/TR/2001/REC-SVG-20010904/DTD/svg10.dtd">
<svg version="1.0" xmlns="http://www.w3.org/2000/svg"
 width="245.000000pt" height="38.000000pt" viewBox="0 0 245.000000 38.000000"
 preserveAspectRatio="xMidYMid meet">

<g transform="translate(0.000000,38.000000) scale(0.100000,-0.100000)"
fill="#000000" stroke="none">
<path d="M442 219 c-2 -88 0 -97 21 -117 47 -44 128 -22 150 40 10 28 -13 78
-44 93 -31 17 -69 20 -69 6 0 -4 10 -6 23 -4 13 3 33 -4 50 -17 55 -43 24
-130 -46 -130 -61 0 -71 17 -78 127 l-5 98 -2 -96z"/>
<path d="M1224 195 c-1 -78 1 -101 5 -65 6 52 8 55 36 58 43 5 91 -25 116 -72
18 -35 20 -37 14 -11 -3 17 -18 42 -32 57 l-25 26 31 23 c17 12 31 27 31 33 0
5 -15 -4 -32 -21 -30 -29 -37 -31 -85 -26 l-52 5 -4 57 c-2 31 -3 2 -3 -64z"/>
<path d="M1640 295 c0 -8 5 -15 10 -15 6 0 10 7 10 15 0 8 -4 15 -10 15 -5 0
-10 -7 -10 -15z"/>
<path d="M2102 224 c-2 -106 -18 -134 -77 -134 -46 0 -75 29 -75 74 0 41 41
80 77 73 13 -2 23 0 23 4 0 14 -38 11 -69 -5 -79 -41 -49 -156 40 -156 25 0
47 8 64 23 25 21 26 25 23 117 l-4 95 -2 -91z"/>
<path d="M92 202 c-2 -56 17 -105 43 -116 34 -13 85 -6 105 14 24 24 33 56 27
106 -3 35 -4 34 -5 -12 -3 -69 -30 -104 -81 -104 -53 0 -75 27 -82 104 l-6 61
-1 -53z"/>
<path d="M349 221 c-26 -26 -29 -35 -27 -88 1 -52 2 -53 5 -13 6 76 12 89 51
109 24 13 30 20 19 21 -10 0 -32 -13 -48 -29z"/>
<path d="M700 237 c-31 -16 -54 -61 -46 -92 12 -47 76 -84 108 -64 8 6 0 9
-23 9 -40 0 -64 20 -74 62 -6 22 -1 33 23 58 34 34 50 37 92 15 31 -16 38 -32
43 -105 3 -40 4 -39 5 13 2 53 -1 62 -27 88 -32 31 -61 36 -101 16z"/>
<path d="M934 240 c-38 -15 -54 -50 -53 -110 l2 -55 6 59 c5 47 12 63 34 82
33 28 47 29 87 9 31 -16 38 -32 43 -105 3 -40 4 -39 5 13 2 53 -1 62 -27 88
-30 29 -58 35 -97 19z"/>
<path d="M1430 245 c0 -8 46 -98 69 -136 l19 -31 41 78 c22 43 39 80 36 82 -2
2 -20 -28 -40 -68 -20 -40 -38 -70 -40 -69 -1 2 -19 37 -40 77 -33 64 -45 83
-45 67z"/>
<path d="M1739 221 c-26 -26 -29 -36 -28 -88 l2 -58 6 59 c5 47 12 63 34 82
33 28 47 29 87 9 31 -16 38 -32 43 -105 3 -40 4 -39 5 13 2 53 -1 62 -27 88
-20 20 -39 29 -61 29 -22 0 -41 -9 -61 -29z"/>
<path d="M2191 224 c-40 -33 -43 -83 -6 -119 28 -29 81 -33 111 -9 18 15 18
15 -3 5 -97 -47 -178 75 -82 124 39 21 54 19 86 -10 l28 -24 -57 -1 c-34 0
-58 -4 -58 -11 0 -6 23 -9 60 -8 33 1 60 6 60 10 0 32 -47 69 -89 69 -11 0
-33 -12 -50 -26z"/>
<path d="M1640 160 c0 -47 4 -80 10 -80 6 0 10 33 10 80 0 47 -4 80 -10 80 -6
0 -10 -33 -10 -80z"/>
</g>
</svg>
