<?xml version="1.0" standalone="no"?>
<!DOCTYPE svg PUBLIC "-//W3C//DTD SVG 20010904//EN"
 "http://www.w3.org/TR/2001/REC-SVG-20010904/DTD/svg10.dtd">
<svg version="1.0" xmlns="http://www.w3.org/2000/svg"
 width="150.000000pt" height="141.000000pt" viewBox="0 0 150.000000 141.000000"
 preserveAspectRatio="xMidYMid meet">

<g transform="translate(0.000000,141.000000) scale(0.100000,-0.100000)"
fill="#000000" stroke="none">
<path d="M125 675 c-3 -8 -7 -22 -10 -31 -3 -9 12 -37 34 -66 54 -67 332 -370
400 -436 142 -136 259 -134 413 7 109 101 244 280 321 428 29 57 31 64 16 78
-15 15 -18 15 -32 1 -11 -12 -17 -13 -20 -3 -3 9 -9 9 -27 -1 -12 -8 -19 -9
-16 -3 4 5 2 12 -4 16 -5 3 -10 1 -10 -6 0 -7 -6 -5 -14 6 -12 16 -14 14 -18
-26 -8 -67 -56 -158 -115 -217 -159 -159 -417 -162 -583 -6 -54 50 -106 141
-116 201 l-6 40 -88 2 c-74 2 -90 -1 -98 -15 -9 -16 -10 -15 -16 4 -4 12 -4
26 -1 32 3 5 4 10 0 10 -3 0 -8 -7 -10 -15z m1169 -41 c3 -8 2 -12 -4 -9 -6 3
-10 10 -10 16 0 14 7 11 14 -7z"/>
<path d="M570 669 c5 -9 7 -19 3 -22 -10 -10 47 -78 59 -71 7 4 8 2 4 -4 -8
-14 36 -38 87 -47 44 -8 118 15 156 49 25 22 66 104 57 113 -3 3 -10 -6 -15
-20 -12 -32 -27 -41 -35 -22 -4 12 -28 15 -126 15 -89 0 -120 3 -121 13 0 6
-4 3 -9 -8 -8 -19 -9 -19 -9 -1 -1 15 -4 16 -15 7 -9 -7 -17 -8 -20 -2 -3 5 0
11 6 14 7 3 3 4 -9 4 -17 -1 -20 -5 -13 -18z"/>
<path d="M145 669 c-4 -6 -5 -12 -2 -15 2 -3 7 2 10 11 7 17 1 20 -8 4z"/>
<path d="M896 665 c-3 -8 -1 -15 4 -15 6 0 10 7 10 15 0 8 -2 15 -4 15 -2 0
-6 -7 -10 -15z"/>
<path d="M1300 676 c0 -2 8 -10 18 -17 15 -13 16 -12 3 4 -13 16 -21 21 -21
13z"/>
</g>
</svg>
