<?xml version="1.0" standalone="no"?>
<!DOCTYPE svg PUBLIC "-//W3C//DTD SVG 20010904//EN"
 "http://www.w3.org/TR/2001/REC-SVG-20010904/DTD/svg10.dtd">
<svg version="1.0" xmlns="http://www.w3.org/2000/svg"
 width="324.000000pt" height="99.000000pt" viewBox="0 0 324.000000 99.000000"
 preserveAspectRatio="xMidYMid meet">

<g transform="translate(0.000000,99.000000) scale(0.100000,-0.100000)"
fill="#000000" stroke="none">
<path d="M22 503 l3 -478 1593 -3 1592 -2 0 480 0 480 -1595 0 -1596 0 3 -477z
m918 -3 l0 -450 -440 0 -440 0 0 450 0 450 440 0 440 0 0 -450z m270 25 c4
-53 9 -70 20 -70 11 0 16 17 20 70 4 62 7 70 25 70 18 0 20 -8 23 -77 2 -67 0
-80 -18 -98 -26 -26 -74 -26 -100 0 -16 16 -20 33 -20 93 0 77 4 90 30 85 11
-2 16 -21 20 -73z m225 55 c13 -14 16 -28 11 -52 -8 -36 -9 -60 -4 -98 5 -40
-25 -36 -50 7 -20 35 -22 36 -22 13 0 -34 -15 -54 -34 -47 -13 5 -16 24 -16
102 l0 95 48 0 c36 0 54 -5 67 -20z m139 1 c9 -10 16 -31 16 -47 0 -16 2 -43
6 -61 5 -24 1 -36 -15 -52 -26 -26 -96 -29 -105 -5 -8 21 -8 169 1 177 14 15
80 7 97 -12z m155 -8 c29 -64 58 -149 54 -160 -6 -18 -30 -16 -41 3 -13 24
-61 25 -82 1 -11 -12 -25 -17 -35 -13 -19 7 -17 17 27 124 33 79 55 92 77 45z
m148 -27 l32 -49 3 49 c3 41 6 49 23 49 18 0 20 -8 23 -75 2 -41 0 -85 -3 -97
-9 -39 -41 -28 -72 25 l-28 47 -6 -42 c-6 -49 -12 -58 -34 -50 -12 5 -15 24
-15 95 0 49 3 92 7 96 15 15 39 -2 70 -48z m233 25 l6 -24 17 26 c35 53 70 26
38 -29 -26 -44 -26 -49 0 -85 11 -16 18 -36 15 -44 -9 -25 -35 -17 -55 16
l-19 32 -4 -29 c-2 -21 -8 -29 -23 -29 -18 0 -20 8 -23 84 -2 46 0 91 3 98 8
22 38 11 45 -16z m150 -26 c15 -41 19 -47 25 -30 27 70 36 85 49 85 28 0 28
-22 1 -98 -31 -84 -41 -102 -60 -102 -15 0 -80 174 -70 190 14 23 39 3 55 -45z
m160 -40 c0 -78 -3 -97 -16 -102 -25 -9 -34 16 -34 94 0 84 6 103 31 103 17 0
19 -8 19 -95z m102 43 l33 -53 3 53 c3 44 6 52 23 52 19 0 20 -6 17 -97 -4
-121 -18 -132 -72 -52 l-35 52 -3 -49 c-3 -41 -6 -49 -23 -49 -18 0 -20 8 -23
84 -2 46 -1 90 2 98 12 29 45 12 78 -39z m239 23 c22 -23 29 -39 29 -70 0 -60
-32 -92 -99 -99 -66 -6 -71 0 -71 95 0 99 2 103 62 103 41 0 54 -5 79 -29z
m157 7 c-2 -17 -11 -24 -31 -26 -28 -3 -33 -26 -6 -28 8 -1 20 -2 27 -3 6 0
12 -10 12 -21 0 -16 -7 -20 -30 -20 -39 0 -41 -27 -2 -32 19 -2 27 -9 27 -23
0 -17 -7 -20 -50 -20 l-50 0 -3 84 c-2 46 -1 90 2 98 4 8 23 13 56 13 48 0 51
-2 48 -22z"/>
<path d="M204 756 c-3 -8 -4 -90 -2 -183 4 -187 13 -222 78 -296 56 -65 111
-90 205 -95 106 -6 165 18 234 94 72 79 81 114 81 321 l0 173 -75 0 -75 0 0
-171 c0 -157 -2 -175 -21 -206 -27 -43 -72 -66 -132 -67 -51 0 -85 19 -121 68
-19 25 -21 44 -24 202 l-3 174 -70 0 c-51 0 -71 -4 -75 -14z"/>
<path d="M1370 534 c0 -9 5 -14 12 -12 18 6 21 28 4 28 -9 0 -16 -7 -16 -16z"/>
<path d="M1520 540 c0 -5 5 -10 10 -10 6 0 10 5 10 10 0 6 -4 10 -10 10 -5 0
-10 -4 -10 -10z"/>
<path d="M1520 465 c0 -8 7 -15 15 -15 8 0 15 7 15 15 0 8 -7 15 -15 15 -8 0
-15 -7 -15 -15z"/>
<path d="M1690 490 c0 -5 5 -10 10 -10 6 0 10 5 10 10 0 6 -4 10 -10 10 -5 0
-10 -4 -10 -10z"/>
<path d="M2670 500 c0 -46 2 -50 23 -50 30 0 47 18 47 50 0 32 -17 50 -47 50
-21 0 -23 -4 -23 -50z"/>
</g>
</svg>
