<?xml version="1.0" standalone="no"?>
<!DOCTYPE svg PUBLIC "-//W3C//DTD SVG 20010904//EN"
 "http://www.w3.org/TR/2001/REC-SVG-20010904/DTD/svg10.dtd">
<svg version="1.0" xmlns="http://www.w3.org/2000/svg"
 width="349.000000pt" height="54.000000pt" viewBox="0 0 349.000000 54.000000"
 preserveAspectRatio="xMidYMid meet">

<g transform="translate(0.000000,54.000000) scale(0.100000,-0.100000)"
fill="#000000" stroke="none">
<path d="M620 325 c0 -126 9 -157 56 -194 58 -46 161 -15 191 57 21 50 2 107
-46 139 -33 23 -111 33 -111 14 0 -4 11 -6 25 -3 60 11 125 -45 125 -108 0
-100 -130 -146 -194 -69 -25 29 -26 36 -26 155 0 76 -4 124 -10 124 -6 0 -10
-45 -10 -115z"/>
<path d="M1740 274 c0 -107 3 -163 10 -159 6 3 10 40 10 81 l0 74 43 0 c23 0
61 -9 84 -19 44 -21 68 -49 88 -107 7 -20 14 -33 17 -28 11 19 -14 74 -48 111
l-36 38 41 35 c58 49 52 61 -6 13 -47 -39 -49 -40 -115 -35 l-68 4 0 79 c0 46
-4 79 -10 79 -6 0 -10 -62 -10 -166z"/>
<path d="M2340 415 c0 -14 5 -25 10 -25 6 0 10 11 10 25 0 14 -4 25 -10 25 -5
0 -10 -11 -10 -25z"/>
<path d="M3000 318 c-5 -123 -6 -127 -34 -157 -54 -56 -139 -50 -177 13 -24
39 -24 73 0 112 21 34 78 60 112 51 10 -3 19 -1 19 4 0 14 -68 10 -100 -6 -40
-21 -60 -53 -60 -98 0 -78 50 -127 129 -127 31 0 49 7 75 31 43 37 48 61 44
199 l-3 105 -5 -127z"/>
<path d="M131 265 c4 -85 4 -87 41 -121 30 -27 46 -34 78 -34 93 0 131 48 128
162 l-1 73 -6 -76 c-4 -44 -13 -85 -23 -100 -38 -58 -127 -62 -172 -8 -23 27
-26 40 -26 104 0 43 -5 77 -11 81 -8 5 -10 -19 -8 -81z"/>
<path d="M509 327 c-19 -13 -39 -38 -46 -57 -15 -43 -17 -147 -3 -155 6 -4 10
21 10 67 0 90 13 117 70 146 29 14 37 22 24 22 -12 0 -36 -10 -55 -23z"/>
<path d="M969 311 c-33 -33 -39 -45 -39 -81 0 -36 6 -48 39 -81 34 -34 45 -39
85 -39 25 0 46 3 46 8 0 4 -20 7 -45 7 -37 0 -51 6 -76 32 -85 85 11 217 124
170 48 -21 61 -48 68 -142 l6 -80 1 83 c2 62 -2 89 -14 108 -23 34 -65 54
-115 54 -35 0 -48 -6 -80 -39z"/>
<path d="M1309 327 c-19 -13 -39 -38 -46 -57 -14 -43 -16 -129 -3 -150 7 -10
10 7 10 58 0 89 18 128 67 149 49 20 96 10 127 -27 24 -29 31 -59 39 -155 2
-22 4 -2 5 44 l2 83 -39 39 c-33 34 -45 39 -83 39 -30 0 -56 -8 -79 -23z"/>
<path d="M2040 344 c0 -14 113 -224 121 -224 10 0 122 220 115 227 -2 3 -29
-43 -59 -102 -62 -124 -51 -125 -126 23 -37 74 -51 94 -51 76z"/>
<path d="M2347 343 c-11 -11 -8 -233 3 -233 6 0 10 47 10 120 0 66 -1 120 -3
120 -2 0 -7 -3 -10 -7z"/>
<path d="M2499 333 c-46 -28 -59 -63 -57 -150 l1 -78 6 82 c6 73 10 86 36 113
35 37 80 46 128 27 48 -21 61 -48 68 -142 l6 -80 1 83 c2 92 -10 122 -59 148
-37 19 -98 17 -130 -3z"/>
<path d="M3133 330 c-34 -21 -63 -66 -63 -100 0 -59 62 -120 122 -120 37 0
105 26 95 36 -3 3 -19 -2 -36 -10 -38 -20 -64 -20 -101 -1 -40 21 -60 53 -60
96 0 94 118 139 192 72 36 -32 23 -42 -64 -46 l-83 -3 93 -2 c99 -2 107 3 76
46 -36 52 -115 67 -171 32z"/>
</g>
</svg>
